<mxfile host="app.diagrams.net" modified="2023-07-02T15:51:14.475Z" agent="Mozilla/5.0 (Macintosh; Intel Mac OS X 10_15_7) AppleWebKit/537.36 (KHTML, like Gecko) Chrome/114.0.0.0 Safari/537.36" etag="cJXu4RH2GN0-A0e47XNj" version="21.5.0" type="github">
  <diagram name="Page-1" id="D8mtQJCvIUCq3xoTe9Ai">
    <mxGraphModel dx="1914" dy="1038" grid="1" gridSize="10" guides="1" tooltips="1" connect="1" arrows="1" fold="1" page="1" pageScale="1" pageWidth="850" pageHeight="1100" math="0" shadow="0">
      <root>
        <mxCell id="0" />
        <mxCell id="1" parent="0" />
        <mxCell id="Rp_fgitV3uWehaf2HcM2-1" value="&lt;font style=&quot;font-size: 26px;&quot;&gt;Ponder Contract deployment&lt;/font&gt;" style="text;html=1;strokeColor=none;fillColor=none;align=center;verticalAlign=middle;whiteSpace=wrap;rounded=0;" parent="1" vertex="1">
          <mxGeometry x="250" y="30" width="320" height="90" as="geometry" />
        </mxCell>
        <mxCell id="3Xp0vNJ-y2MnxwoDZw0I-1" value="&lt;h1&gt;Create3 Factory&lt;/h1&gt;" style="text;html=1;strokeColor=none;fillColor=none;spacing=5;spacingTop=-20;whiteSpace=wrap;overflow=hidden;rounded=0;" parent="1" vertex="1">
          <mxGeometry x="315" y="420" width="220" height="60" as="geometry" />
        </mxCell>
        <mxCell id="3Xp0vNJ-y2MnxwoDZw0I-2" value="&lt;h1&gt;dex guru&lt;/h1&gt;&lt;p&gt;&lt;br&gt;&lt;/p&gt;" style="text;html=1;strokeColor=none;fillColor=none;spacing=5;spacingTop=-20;whiteSpace=wrap;overflow=hidden;rounded=0;" parent="1" vertex="1">
          <mxGeometry x="335" y="620" width="185" height="70" as="geometry" />
        </mxCell>
        <mxCell id="e5trn_ajBI5a_qGK76ur-2" value="&lt;b&gt;wallet addres with nonce 0&lt;/b&gt;" style="text;html=1;strokeColor=none;fillColor=none;align=center;verticalAlign=middle;whiteSpace=wrap;rounded=0;" vertex="1" parent="1">
          <mxGeometry x="300" y="220" width="220" height="30" as="geometry" />
        </mxCell>
        <mxCell id="e5trn_ajBI5a_qGK76ur-3" value="" style="rounded=1;whiteSpace=wrap;html=1;fillColor=none;" vertex="1" parent="1">
          <mxGeometry x="285" y="410" width="250" height="70" as="geometry" />
        </mxCell>
      </root>
    </mxGraphModel>
  </diagram>
</mxfile>
